<?xml version="1.0" encoding="utf-8"?>
<!-- Generator: Adobe Illustrator 23.0.2, SVG Export Plug-In . SVG Version: 6.00 Build 0)  -->
<svg version="1.1" id="Layer_1" xmlns="http://www.w3.org/2000/svg" xmlns:xlink="http://www.w3.org/1999/xlink" x="0px" y="0px"
	 viewBox="0 0 48 48" style="enable-background:new 0 0 48 48;" xml:space="preserve">
<style type="text/css">
	.st0{fill:#C69C6D;}
	.st1{fill:#FFFFFF;}
</style>
<g>
	<path class="st0" d="M42,48H6c-3.31,0-6-2.69-6-6V6c0-3.31,2.69-6,6-6h36c3.31,0,6,2.69,6,6v36C48,45.31,45.31,48,42,48z"/>
</g>
<g>
	<g>
		<path class="st1" d="M12,29.36c0-4.86,1.43-8.88,4.29-12.07c2.36-2.62,5.45-3.94,9.28-3.94c3,0,5.42,0.94,7.25,2.81
			s2.75,4.41,2.75,7.59c0,2.86-0.58,5.52-1.73,7.98s-2.8,4.35-4.93,5.66s-4.38,1.97-6.74,1.97c-1.94,0-3.7-0.41-5.29-1.24
			s-2.8-2-3.63-3.52S12,31.34,12,29.36z M16.24,28.94c0,2.34,0.56,4.12,1.69,5.33s2.55,1.82,4.29,1.82c0.91,0,1.8-0.18,2.7-0.55
			c0.89-0.37,1.72-0.93,2.48-1.68s1.42-1.61,1.96-2.57s0.97-2,1.3-3.11c0.48-1.55,0.73-3.03,0.73-4.45c0-2.25-0.57-4-1.7-5.24
			s-2.56-1.86-4.28-1.86c-1.33,0-2.54,0.32-3.63,0.95s-2.08,1.56-2.96,2.78s-1.53,2.64-1.95,4.25S16.24,27.67,16.24,28.94z"/>
	</g>
</g>
</svg>
